# xmcd
# Track frame offsets:
# 150
# 10482
# 23409
# 36709
# 48529
# 60505
# 72675
# 85324
# 96575
# 109303
# 123079
# 136985
# 150612
# 162053
# 172151
# 185098
# 195316
# 207593
#
# Disc length: 2922 seconds
# Revision: 0
# Processed by: cddbd v1.5.2PL0 Copyright (c) Steve Scherf et al.
# Submitted via: VisiTrax 2.11.3.279 - For more info visit www.synapsa.com
#
DISCID=080b6812
DTITLE=John Lee Hooker - House of the blues, Disc 1 (I´m John Lee Hooker)
DYEAR=2011
DGENRE=Blues
TTITLE0=Dimples
TTITLE1=Hobo Blues
TTITLE2=I´m so exited
TTITLE3=I love you honey
TTITLE4=Boogie chilun
TTITLE5=Little wheel
TTITLE6=I´m in the mood
TTITLE7=Maudie
TTITLE8=Crawlin´king snake
TTITLE9=Every night
TTITLE10=Time is marching
TTITLE11=Baby Lee
TTITLE12=No shoes
TTITLE13=I wanna walk
TTITLE14=Canal street blues
TTITLE15=Run on
TTITLE16=I´m a stranger
TTITLE17=Solid sender
EXTD=NOT 2CD411
EXTT0=Traks 1-12\nOriginal released on Vee-Jay Records (LP 1007), 1959\n\nPe
EXTT0=rsonnel (tracks 1-12):\nJohn Lee Hooker - vocals, guitar
EXTT1=
EXTT2=
EXTT3=
EXTT4=
EXTT5=
EXTT6=
EXTT7=
EXTT8=
EXTT9=
EXTT10=
EXTT11=
EXTT12=
EXTT13=
EXTT14=
EXTT15=
EXTT16=
EXTT17=
PLAYORDER=
